# xmcd
#
# Track frame offsets: 
#        150
#        12009
#        27918
#        43564
#        59403
#        72520
#        87421
#        100603
#        116316
#        132957
#        151383
#        168459
#        184796
#        201542
#        219621
#        231830
#        249481
#        265406
#        282937
#        299827
#
# Disc length: 4220 seconds
#
# Revision: 0
# Processed by: cddbd v1.5.2PL0 Copyright (c) Steve Scherf et al.
# Submitted via: ExactAudioCopy v1.1
#
DISCID=2d107a14
DTITLE=邓丽君 - 邓丽君精选20首VOL1
DYEAR=2015
DGENRE=
TTITLE0=小城故事
TTITLE1=月亮代表我的心
TTITLE2=一封情信
TTITLE3=千言万语
TTITLE4=何日君再来
TTITLE5=难忘初恋的情人
TTITLE6=忘记他
TTITLE7=甜蜜蜜
TTITLE8=泪的小雨
TTITLE9=初次尝到寂寞
TTITLE10=情人的关怀
TTITLE11=丝丝细雨
TTITLE12=漫步人生路
TTITLE13=爱的谎言
TTITLE14=奈何
TTITLE15=威风细雨
TTITLE16=遥远的路
TTITLE17=爱像一首歌
TTITLE18=空港(日)
TTITLE19=雪化桩
EXTD=
EXTT0=
EXTT1=
EXTT2=
EXTT3=
EXTT4=
EXTT5=
EXTT6=
EXTT7=
EXTT8=
EXTT9=
EXTT10=
EXTT11=
EXTT12=
EXTT13=
EXTT14=
EXTT15=
EXTT16=
EXTT17=
EXTT18=
EXTT19=
PLAYORDER=
